<svg width="64" height="64" viewBox="0 0 64 64" fill="none" xmlns="http://www.w3.org/2000/svg">
<circle cx="32" cy="32" r="31" stroke="white" stroke-width="2"/>
<path d="M19 27.0379L23 29.5379C22.5 30.0379 21.1 31.7379 21.5 36.5379C21.6667 38.2046 23.2 42.1379 28 44.5379C29 45.0379 31.7 45.8379 34.5 45.0379C35.3333 44.8713 37.5 44.0379 39.5 42.0379C40.6667 41.0379 42.9 38.0379 42.5 34.0379C42.6667 32.7046 42 29.2379 38 26.0379C37.1667 25.2046 34.5 23.6379 30.5 24.0379L32 28.0379C32.3333 28.8713 32.6 30.2379 31 29.0379L22.5 22.5379C22 22.3713 21.3 21.8379 22.5 21.0379L31 14.5379C31.6667 14.0379 32.8 13.4379 32 15.0379L30.5 19.5379C32.3333 19.3713 36.6 19.4379 39 21.0379C42.5 22.8713 49 28.8379 47 38.0379C46.1667 42.0379 41.8 50.0379 31 50.0379C27.8333 50.0379 20.7 47.9379 17.5 39.5379C16.6667 37.0379 15.8 31.0379 19 27.0379Z" fill="white"/>
</svg>
